# xmcd CD database file
#
# Track frame offsets:
#	150
#	14551
#	26168
#	39652
#	54093
#	64624
#	76917
#	90720
#	105289
#	119142
#	131250
#	145397
#	164413
#	180590
#	192882
#	203571
#
# Disc length: 2881 seconds
#
# Revision: 0
# Processed by: cddbd v1.4PL0 Copyright (c) Steve Scherf et al.
# Submitted via: CDex 1.50Beta3
#
DISCID=d30b3f10
DTITLE=Don Williams - The Ultimate Hit Collection Disc 01
DYEAR=1900
DGENRE=Country
TTITLE0=Amanda
TTITLE1=Time On My Hands
TTITLE2=Love Me Over Again
TTITLE3=Down The Road I Go
TTITLE4=Especially For You
TTITLE5=Falling In Love Again
TTITLE6=Fool Fool Heart
TTITLE7=Tulsa Time
TTITLE8=Come Early Morning
TTITLE9=Ghost Story
TTITLE10=(I'm Just A) Country Boy
TTITLE11=Good Ole Boys Like Me
TTITLE12=Cryin' Eyes
TTITLE13=Years From Now
TTITLE14=Louisiana Saturday Night
TTITLE15=Some Broken Hearts Never Mend
EXTD=
EXTT0=
EXTT1=
EXTT2=
EXTT3=
EXTT4=
EXTT5=
EXTT6=
EXTT7=
EXTT8=
EXTT9=
EXTT10=
EXTT11=
EXTT12=
EXTT13=
EXTT14=
EXTT15=
PLAYORDER=
